<svg width="24" height="24" viewBox="0 0 24 24" fill="none" xmlns="http://www.w3.org/2000/svg"><rect x="2" y="2" width="4" height="4" rx="0.5" fill="black"></rect><rect x="8" y="2" width="4" height="4" rx="0.5" fill="black"></rect><rect x="14" y="2" width="4" height="4" rx="0.5" fill="black"></rect><rect x="2" y="8" width="4" height="4" rx="0.5" fill="black"></rect><rect x="8" y="8" width="4" height="4" rx="0.5" fill="black"></rect><rect x="14" y="8" width="3" height="3" rx="0.5" fill="black" opacity="0.7"></rect><rect x="19" y="3" width="2" height="2" rx="0.5" fill="black" opacity="0.4"></rect><rect x="2" y="14" width="4" height="4" rx="0.5" fill="black"></rect><rect x="8" y="14" width="3" height="3" rx="0.5" fill="black" opacity="0.7"></rect><rect x="14" y="14" width="2" height="2" rx="0.5" fill="black" opacity="0.4"></rect><rect x="3" y="20" width="2" height="2" rx="0.5" fill="black" opacity="0.5"></rect><rect x="9" y="19" width="1.5" height="1.5" rx="0.5" fill="black" opacity="0.3"></rect><rect x="18" y="9" width="1.5" height="1.5" rx="0.5" fill="black" opacity="0.3"></rect><rect x="20" y="7" width="1" height="1" rx="0.5" fill="black" opacity="0.2"></rect></svg>
